<?xml version="1.0"?>
<svg xmlns="http://www.w3.org/2000/svg" height="512px" viewBox="0 0 480 480.17771" width="512px" class=""><g><path d="m440.089844 96.175781c0 39.765625-32.238282 72-72 72-39.765625 0-72-32.234375-72-72 0-39.761719 32.234375-72 72-72 39.761718 0 72 32.238281 72 72zm0 0" fill="#f9e109" data-original="#F9E109" class=""/><path d="m329.449219 35.457031c-32.945313 20.277344-43.976563 62.960938-24.988281 96.664063 18.992187 33.699218 61.21875 46.371094 95.628906 28.695312-2.371094-50.613281-28.574219-97.113281-70.640625-125.359375zm0 0" fill="#fcbc04" data-original="#FCBC04" class=""/><path d="m408.089844 96.175781c0 22.09375-17.910156 40-40 40-22.09375 0-40-17.90625-40-40 0-22.089843 17.90625-40 40-40 22.089844 0 40 17.910157 40 40zm0 0" fill="#fcbc04" data-original="#FCBC04" class=""/><path d="m394.25 126.175781c-6.875-25.464843-19.957031-48.832031-38.082031-68-15.828125 4.601563-27.210938 18.441407-28.675781 34.859375-1.464844 16.414063 7.289062 32.050782 22.054687 39.378906 14.761719 7.332032 32.507813 4.855469 44.703125-6.238281zm0 0" fill="#e59730" data-original="#E59730" class="" style="fill:#E59730"/><path d="m168.089844 64.175781c0 30.929688-25.074219 56-56 56-30.929688 0-56-25.070312-56-56 0-30.925781 25.070312-56 56-56 30.925781 0 56 25.074219 56 56zm0 0" fill="#f9e109" data-original="#F9E109" class=""/><path d="m168.089844 64.175781c-.007813-11.777343-3.734375-23.257812-10.640625-32.796875-31.800781 19.203125-55.925781 48.871094-68.242188 83.917969 17.328125 7.757813 37.40625 6.207031 53.335938-4.117187 15.933593-10.324219 25.546875-28.019532 25.546875-47.003907zm0 0" fill="#fcbc04" data-original="#FCBC04" class=""/><path d="m136.089844 64.175781c0 13.257813-10.746094 24-24 24s-24-10.742187-24-24c0-13.253906 10.746094-24 24-24s24 10.746094 24 24zm0 0" fill="#fcbc04" data-original="#FCBC04" class=""/><path d="m102.890625 86.335938c2.914063 1.214843 6.039063 1.839843 9.199219 1.839843 13.253906 0 24-10.742187 24-24 .003906-4.820312-1.449219-9.53125-4.160156-13.519531-11.324219 10.457031-21.101563 22.472656-29.039063 35.679688zm0 0" fill="#e59730" data-original="#E59730" class="" style="fill:#E59730"/><path d="m8.089844 200.175781h464v272h-464zm0 0" fill="#e59730" data-original="#E59730" class="" style="fill:#E59730"/><path d="m64.089844 200.175781h408v216h-280c-70.695313 0-128-57.304687-128-128zm0 0" fill="#fcbc04" data-original="#FCBC04" class=""/><path d="m368.089844 200.175781c0 8.839844 7.164062 16 16 16h40c17.671875 0 32 14.328125 32 32v56c0 8.839844 7.164062 16 16 16v-120zm0 0" fill="#f9e109" data-original="#F9E109" class=""/><path d="m94.570312 200.175781c17.339844 52.40625 66.320313 87.792969 121.519532 87.792969 55.199218 0 104.179687-35.386719 121.519531-87.792969zm0 0" fill="#e59730" data-original="#E59730" class="" style="fill:#E59730"/><path d="m392.089844 232.175781h-304c0 26.511719-21.492188 48-48 48v112c26.507812 0 48 21.492188 48 48h304c0-26.507812 21.488281-48 48-48v-112c-26.511719 0-48-21.488281-48-48zm0 0" fill="#7ab92d" data-original="#7AB92D" class="" style="fill:#3C804E" data-old_color="#7ab92d"/><path d="m392.089844 232.175781h-304c-.019532 17.132813-9.164063 32.957031-24 41.523438v14.476562c0 70.695313 57.304687 128 128 128h206.480468c8.5625-14.835937 24.386719-23.980469 41.519532-24v-112c-26.511719 0-48-21.488281-48-48zm0 0" fill="#a1d51c" data-original="#A1D51C" class="" style="fill:#4C9960" data-old_color="#a1d51c"/><path d="m110.410156 232.175781c23.851563 34.90625 63.402344 55.78125 105.679688 55.78125s81.824218-20.875 105.679687-55.78125zm0 0" fill="#7ab92d" data-original="#7AB92D" class="" style="fill:#3C804E" data-old_color="#7ab92d"/><path d="m312.089844 336.175781c0 39.765625-32.238282 72-72 72-39.765625 0-72-32.234375-72-72 0-39.761719 32.234375-72 72-72 39.761718 0 72 32.238281 72 72zm0 0" fill="#f9e109" data-original="#F9E109" class=""/><path d="m216.089844 288.175781c20.679687-.011719 41.046875-5.035156 59.359375-14.636719-28.132813-15.867187-63.382813-11.058593-86.242188 11.757813 8.835938 1.902344 17.84375 2.867187 26.882813 2.878906zm0 0" fill="#fcbc04" data-original="#FCBC04" class=""/><path d="m256.089844 336.175781v40h-32v-40h-16l32-40 32 40zm0 0" fill="#4891d3" data-original="#4891D3" class="" style="fill:#3C804E" data-old_color="#4891d3"/><path d="m240.089844 344.175781c.039062 11.394531 6.132812 21.90625 16 27.601563v-35.601563h16l-32-40zm0 0" fill="#57b7eb" data-original="#57B7EB" class="" style="fill:#4C9960" data-old_color="#57b7eb"/><path d="m368.089844 136.175781c0 70.695313-57.308594 128-128 128-70.695313 0-128-57.304687-128-128 0-70.691406 57.304687-128 128-128 70.691406 0 128 57.308594 128 128zm0 0" fill="#f9e109" data-original="#F9E109" class=""/><path d="m336.089844 136.175781c0 53.019531-42.980469 96-96 96-53.019532 0-96-42.980469-96-96 0-53.015625 42.980468-96 96-96 53.019531 0 96 42.984375 96 96zm0 0" fill="#fcbc04" data-original="#FCBC04" class=""/><path d="m240.089844 40.175781c-33.472656.03125-64.515625 17.492188-81.921875 46.082031 37.804687-22.886718 86.351562-17.007812 117.601562 14.242188 31.246094 31.246094 37.125 79.792969 14.238281 117.597656 36.679688-22.410156 53.992188-66.46875 42.378907-107.855468-11.609375-41.382813-49.316407-70.003907-92.296875-70.066407zm0 0" fill="#e59730" data-original="#E59730" class="" style="fill:#E59730"/><g fill="#39519d"><path d="m104.089844 136.175781c.007812 33.113281 12.097656 65.085938 34 89.921875 2.964844 3.089844 7.839844 3.292969 11.054687.464844 3.214844-2.832031 3.628907-7.691406.945313-11.023438-41.414063-47.398437-39.171875-118.738281 5.140625-163.441406 44.308593-44.699218 115.628906-47.566406 163.386719-6.570312 47.757812 41 55.722656 111.929687 18.246093 162.5-37.472656 50.566406-107.652343 63.589844-160.773437 29.832031-2.414063-2.140625-5.875-2.621094-8.78125-1.21875-2.90625 1.398437-4.683594 4.40625-4.515625 7.628906.171875 3.21875 2.257812 6.023438 5.296875 7.109375 52.601562 32.824219 120.75 25.914063 165.691406-16.800781 44.945312-42.714844 55.304688-110.421875 25.191406-164.625-30.109375-54.203125-93.070312-81.175781-153.085937-65.582031-60.011719 15.59375-101.878907 69.800781-101.796875 131.804687zm0 0" data-original="#39519D" class="active-path" style="fill:#605800" data-old_color="#39519D"/><path d="m288.089844 112.175781c0-17.671875-14.328125-32-32-32v-8c0-4.417969-3.582032-8-8-8-4.417969 0-8 3.582031-8 8v8h-16v-8c0-4.417969-3.582032-8-8-8-4.417969 0-8 3.582031-8 8v8h-8c-4.417969 0-8 3.582031-8 8 0 4.421875 3.582031 8 8 8h8v80h-8c-4.417969 0-8 3.582031-8 8 0 4.421875 3.582031 8 8 8h8v8c0 4.421875 3.582031 8 8 8 4.417968 0 8-3.578125 8-8v-8h16v8c0 4.421875 3.582031 8 8 8 4.417968 0 8-3.578125 8-8v-8c13.269531-.082031 25.109375-8.351562 29.761718-20.78125 4.652344-12.429687 1.152344-26.4375-8.800781-35.21875 6.960938-6.035156 10.984375-14.78125 11.039063-24zm-16 48c0 8.839844-7.164063 16-16 16h-32v-32h32c8.835937 0 16 7.164063 16 16zm-48-32v-32h32c8.835937 0 16 7.164063 16 16 0 8.839844-7.164063 16-16 16zm0 0" data-original="#39519D" class="active-path" style="fill:#605800" data-old_color="#39519D"/><path d="m298.808594 201.699219c-3.292969 2.957031-3.558594 8.027343-.601563 11.320312 2.960938 3.289063 8.03125 3.558594 11.320313.597657 37.34375-33.472657 45.476562-88.824219 19.347656-131.628907-26.128906-42.800781-79.082031-60.863281-125.917969-42.949219-46.839843 17.917969-74.222656 66.707032-65.121093 116.019532 9.105468 49.316406 52.105468 85.109375 102.253906 85.117187 13.382812.027344 26.640625-2.554687 39.039062-7.597656 3.8125-1.824219 5.546875-6.304687 3.960938-10.222656-1.589844-3.917969-5.953125-5.921875-9.960938-4.578125-42.324218 17.125-90.71875-.96875-111.429687-41.660156-20.710938-40.691407-6.859375-90.460938 31.890625-114.605469 38.753906-24.144531 89.535156-14.640625 116.933594 21.882812 27.398437 36.523438 22.308593 87.9375-11.714844 118.382813zm0 0" data-original="#39519D" class="active-path" style="fill:#605800" data-old_color="#39519D"/><path d="m400.089844 344.175781c4.417968 0 8-3.578125 8-8 0-4.417969-3.582032-8-8-8h-48c-4.417969 0-8 3.582031-8 8 0 4.421875 3.582031 8 8 8zm0 0" data-original="#39519D" class="active-path" style="fill:#605800" data-old_color="#39519D"/><path d="m72.089844 336.175781c0 4.421875 3.582031 8 8 8h48c4.417968 0 8-3.578125 8-8 0-4.417969-3.582032-8-8-8h-48c-4.417969 0-8 3.582031-8 8zm0 0" data-original="#39519D" class="active-path" style="fill:#605800" data-old_color="#39519D"/><path d="m248.089844 336.175781v40c0 4.421875 3.582031 8 8 8 4.417968 0 8-3.578125 8-8v-32h8c3.078125-.007812 5.875-1.78125 7.199218-4.558593 1.144532-2.644532.777344-5.699219-.960937-8l-32-40c-1.519531-1.890626-3.8125-2.992188-6.238281-2.992188-2.425782 0-4.722656 1.101562-6.242188 2.992188l-32 40c-1.738281 2.300781-2.101562 5.355468-.957031 8 1.320313 2.777343 4.121094 4.550781 7.199219 4.558593h8v32c0 4.421875 3.582031 8 8 8 4.417968 0 8-3.578125 8-8v-40c.011718-4.179687-3.195313-7.664062-7.359375-8l15.359375-19.199219 15.359375 19.199219c-4.167969.335938-7.375 3.820313-7.359375 8zm0 0" data-original="#39519D" class="active-path" style="fill:#605800" data-old_color="#39519D"/><path d="m472.089844 192.175781h-81.28125c-4.417969 0-8 3.582031-8 8 0 4.421875 3.582031 8 8 8h73.28125v256h-448v-256h73.277344c4.421874 0 8-3.578125 8-8 0-4.417969-3.578126-8-8-8h-81.277344c-4.417969 0-8.0000002 3.582031-8.0000002 8v272c0 4.421875 3.5820312 8 8.0000002 8h464c4.417968 0 8-3.578125 8-8v-272c0-4.417969-3.582032-8-8-8zm0 0" data-original="#39519D" class="active-path" style="fill:#605800" data-old_color="#39519D"/><path d="m328.089844 440.175781c0 4.421875 3.582031 8 8 8h56c4.417968 0 8-3.578125 8-8 0-22.089843 17.90625-40 40-40 4.417968 0 8-3.578125 8-8v-112c0-4.417969-3.582032-8-8-8-22.09375 0-40-17.90625-40-40 0-4.417969-3.582032-8-8-8h-27.519532c-4.417968 0-8 3.582031-8 8 0 4.421875 3.582032 8 8 8h20.078126c3.542968 24.585938 22.855468 43.898438 47.441406 47.441407v97.121093c-24.585938 3.542969-43.898438 22.855469-47.441406 47.4375h-48.558594c-4.417969 0-8 3.582031-8 8zm0 0" data-original="#39519D" class="active-path" style="fill:#605800" data-old_color="#39519D"/><path d="m80.089844 232.175781c0 22.09375-17.910156 40-40 40-4.417969 0-8 3.582031-8 8v112c0 4.421875 3.582031 8 8 8 22.089844 0 40 17.910157 40 40 0 4.421875 3.582031 8 8 8h216c4.417968 0 8-3.578125 8-8 0-4.417969-3.582032-8-8-8h-208.5625c-3.542969-24.582031-22.855469-43.894531-47.4375-47.4375v-97.121093c24.582031-3.542969 43.894531-22.855469 47.4375-47.441407h20.082031c4.417969 0 8-3.578125 8-8 0-4.417969-3.582031-8-8-8h-27.519531c-4.417969 0-8 3.582031-8 8zm0 0" data-original="#39519D" class="active-path" style="fill:#605800" data-old_color="#39519D"/><path d="m298.570312 281.699219c-3.070312-2.875-7.84375-2.878907-10.921874-.015625-3.074219 2.867187-3.410157 7.628906-.757813 10.894531 23.714844 25.425781 22.792969 65.132813-2.074219 89.429687-24.867187 24.300782-64.585937 24.300782-89.457031 0-24.867187-24.296874-25.785156-64.003906-2.070313-89.429687 2.183594-2.042969 3.042969-5.132813 2.234376-8.007813-.808594-2.878906-3.15625-5.066406-6.085938-5.667968-2.925781-.605469-5.945312.472656-7.828125 2.796875-29.664063 31.773437-28.523437 81.417969 2.5625 111.800781s80.746094 30.382812 111.832031 0c31.089844-30.382812 32.226563-80.027344 2.566406-111.800781zm0 0" data-original="#39519D" class="active-path" style="fill:#605800" data-old_color="#39519D"/><path d="m356.730469 33.21875c3.742187-.703125 7.546875-1.050781 11.359375-1.042969 30.101562.027344 56.121094 21.03125 62.492187 50.453125 6.375 29.421875-8.617187 59.308594-36.011719 71.789063-3.421874 1.558593-5.296874 5.285156-4.507812 8.957031.789062 3.675781 4.027344 6.304688 7.785156 6.324219 1.160156-.007813 2.300782-.253907 3.359375-.722657 34.25-15.601562 52.988281-52.964843 45.019531-89.746093-7.972656-36.78125-40.503906-63.03125-78.136718-63.054688-4.75-.007812-9.492188.417969-14.160156 1.28125-4.417969.773438-7.375 4.980469-6.601563 9.402344.773437 4.417969 4.984375 7.371094 9.402344 6.597656zm0 0" data-original="#39519D" class="active-path" style="fill:#605800" data-old_color="#39519D"/><path d="m394.328125 127.136719c1.410156 1.128906 3.15625 1.75 4.960937 1.761719 2.460938.011718 4.792969-1.109376 6.320313-3.039063 9.730469-12.433594 12.726563-28.851563 8.011719-43.921875-4.710938-15.066406-16.53125-26.851562-31.613282-31.519531-2.089843-.609375-4.339843-.335938-6.226562.75-1.886719 1.085937-3.25 2.894531-3.773438 5.007812-1.242187 4.21875 1.152344 8.648438 5.359376 9.921875 13.304687 4.027344 22.484374 16.183594 22.722656 30.078125-.015625 7.199219-2.5 14.175781-7.039063 19.761719-2.726562 3.453125-2.152343 8.453125 1.277344 11.199219zm0 0" data-original="#39519D" class="active-path" style="fill:#605800" data-old_color="#39519D"/><path d="m112.089844 48.175781c4.417968 0 8-3.578125 8-8 0-4.417969-3.582032-8-8-8-17.675782 0-32 14.328125-32 32 .050781 5.871094 1.679687 11.617188 4.71875 16.640625 1.460937 2.398438 4.070312 3.859375 6.878906 3.839844 1.472656-.007812 2.910156-.421875 4.160156-1.199219 1.886719-1.109375 3.238282-2.941406 3.738282-5.074219.5-2.132812.101562-4.375-1.097657-6.207031-1.519531-2.394531-2.347656-5.160156-2.398437-8 0-8.835937 7.164062-16 16-16zm0 0" data-original="#39519D" class="active-path" style="fill:#605800" data-old_color="#39519D"/><path d="m77.929688 118.257812c3.734374 2.363282 8.675781 1.253907 11.039062-2.480468s1.253906-8.675782-2.480469-11.039063c-20.960937-13.871093-27.671875-41.566406-15.382812-63.492187 12.285156-21.929688 39.410156-30.664063 62.183593-20.027344 1.90625.96875 4.121094 1.132812 6.152344.457031 2.027344-.679687 3.703125-2.140625 4.648438-4.058593 1.960937-3.953126.351562-8.75-3.601563-10.71875-8.8125-4.421876-18.539062-6.722657-28.398437-6.722657-28.472656.03125-53.503906 18.867188-61.414063 46.214844-7.914062 27.351563 3.195313 56.640625 27.253907 71.867187zm0 0" data-original="#39519D" class="active-path" style="fill:#605800" data-old_color="#39519D"/></g></g> </svg>
